<svg width="21" height="22" viewBox="0 0 21 22" fill="none" xmlns="http://www.w3.org/2000/svg">
<path d="M9 0V4H7L11 8L15 4H13V0H9ZM0 2V4H2L5.6 11.59L4.25 14.04C4.09 14.32 4 14.65 4 15C4 15.5304 4.21071 16.0391 4.58579 16.4142C4.96086 16.7893 5.46957 17 6 17H18V15H6.42C6.29 15 6.17 14.89 6.17 14.75L6.2 14.63L7.1 13H14.55C15.3 13 15.96 12.59 16.3 11.97L20.16 4.96L18.42 4H18.41L17.31 6L14.55 11H7.53L7.4 10.73L5.16 6L4.21 4L3.27 2H0ZM6 18C5.46957 18 4.96086 18.2107 4.58579 18.5858C4.21071 18.9609 4 19.4696 4 20C4 20.5304 4.21071 21.0391 4.58579 21.4142C4.96086 21.7893 5.46957 22 6 22C6.53043 22 7.03914 21.7893 7.41421 21.4142C7.78929 21.0391 8 20.5304 8 20C8 19.4696 7.78929 18.9609 7.41421 18.5858C7.03914 18.2107 6.53043 18 6 18ZM16 18C15.4696 18 14.9609 18.2107 14.5858 18.5858C14.2107 18.9609 14 19.4696 14 20C14 20.5304 14.2107 21.0391 14.5858 21.4142C14.9609 21.7893 15.4696 22 16 22C16.5304 22 17.0391 21.7893 17.4142 21.4142C17.7893 21.0391 18 20.5304 18 20C18 19.4696 17.7893 18.9609 17.4142 18.5858C17.0391 18.2107 16.5304 18 16 18Z" fill="#FF5151"/>
</svg>
