<svg width="38" height="27" viewBox="0 0 38 27" fill="none" xmlns="http://www.w3.org/2000/svg">
<path d="M18.6667 26.6678H2.66667C1.95942 26.6678 1.28115 26.3869 0.781048 25.8868C0.280951 25.3867 0 24.7084 0 24.0012V2.66784C0 1.9606 0.280951 1.28232 0.781048 0.782222C1.28115 0.282125 1.95942 0.00117323 2.66667 0.00117323H12C12.0119 -0.000391077 12.0241 -0.000391077 12.036 0.00117323H12.044C12.0566 0.0051088 12.0695 0.00778858 12.0827 0.00917329C12.2 0.0171733 12.316 0.0398398 12.428 0.0771731H12.484C12.5086 0.0943984 12.5318 0.113571 12.5533 0.134506C12.6986 0.199097 12.8309 0.289442 12.944 0.401173L20.944 8.40117C21.0558 8.51422 21.1461 8.64658 21.2107 8.79184C21.2223 8.82067 21.2325 8.85004 21.2413 8.87984L21.2547 8.91717C21.292 9.02784 21.3133 9.14384 21.32 9.26117C21.3212 9.27446 21.3243 9.28749 21.3293 9.29984V9.30784C21.3315 9.31659 21.3328 9.32551 21.3333 9.33451V24.0012C21.3333 24.7084 21.0524 25.3867 20.5523 25.8868C20.0522 26.3869 19.3739 26.6678 18.6667 26.6678ZM13.8987 16.0012V22.6678H15.152V19.9478H17.0987V18.8305H15.152V17.1225H17.3333V16.0012H13.8987ZM8.96533 16.0012V22.6678H10.5733C10.9064 22.6843 11.2389 22.6258 11.5463 22.4965C11.8537 22.3673 12.1281 22.1707 12.3493 21.9212C12.8092 21.3344 13.0396 20.6002 12.9973 19.8558V18.7758C13.0284 18.0393 12.7915 17.3165 12.3307 16.7412C11.8973 16.2478 11.264 15.9758 10.6067 16.0012H8.96533V16.0012ZM4 16.0012V22.6678H5.25333V20.3225H6.088C6.64533 20.3532 7.18933 20.1465 7.58667 19.7545C7.96519 19.3309 8.16159 18.7752 8.13333 18.2078C8.15808 17.6268 7.9618 17.058 7.584 16.6158C7.39944 16.4112 7.17185 16.2499 6.91757 16.1436C6.6633 16.0374 6.38864 15.9887 6.11333 16.0012H4ZM12 2.66784V9.33451H18.6667L12 2.66784ZM10.5947 21.5505H10.2187V17.1225H10.6747C10.834 17.1131 10.9932 17.1438 11.1376 17.2118C11.282 17.2799 11.4071 17.383 11.5013 17.5118C11.6973 17.9158 11.7813 18.3652 11.744 18.8132V19.9718C11.7733 20.3985 11.6813 20.8252 11.4773 21.1998C11.3697 21.3255 11.2331 21.4231 11.0793 21.4842C10.9255 21.5453 10.7592 21.568 10.5947 21.5505V21.5505ZM6.11333 19.2012H5.252V17.1225H6.12533C6.23259 17.1237 6.33779 17.152 6.43107 17.205C6.52436 17.2579 6.60267 17.3337 6.65867 17.4252C6.80267 17.6638 6.872 17.9385 6.85867 18.2172C6.87539 18.4765 6.80653 18.7341 6.66267 18.9505C6.59729 19.0326 6.51346 19.098 6.41801 19.1416C6.32255 19.1852 6.21816 19.2056 6.11333 19.2012Z" fill="#C2C2C2"/>
<path d="M32.6665 8.33453V16.3345M32.6665 16.3345L28.6665 11.7631M32.6665 16.3345L36.6665 11.7631" stroke="#3F3F3F"/>
</svg>
